<svg width="132" height="24" viewBox="0 0 132 24" fill="none" xmlns="http://www.w3.org/2000/svg">
<path d="M10 18C11.775 17.9996 13.4988 17.4054 14.897 16.312L19.293 20.708L20.707 19.294L16.311 14.898C17.405 13.4997 17.9996 11.7754 18 10C18 5.589 14.411 2 10 2C5.589 2 2 5.589 2 10C2 14.411 5.589 18 10 18ZM10 4C13.309 4 16 6.691 16 10C16 13.309 13.309 16 10 16C6.691 16 4 13.309 4 10C4 6.691 6.691 4 10 4Z" fill="#000201"/>
<path d="M66 2C65.0111 2 64.0444 2.29324 63.2221 2.84265C62.3999 3.39206 61.759 4.17295 61.3806 5.08658C61.0022 6.00021 60.9031 7.00555 61.0961 7.97545C61.289 8.94536 61.7652 9.83627 62.4645 10.5355C63.1637 11.2348 64.0546 11.711 65.0245 11.9039C65.9945 12.0969 66.9998 11.9978 67.9134 11.6194C68.827 11.241 69.6079 10.6001 70.1573 9.77785C70.7068 8.95561 71 7.98891 71 7C71 5.67392 70.4732 4.40215 69.5355 3.46447C68.5979 2.52678 67.3261 2 66 2ZM66 10C65.4067 10 64.8266 9.82405 64.3333 9.49441C63.8399 9.16476 63.4554 8.69623 63.2284 8.14805C63.0013 7.59987 62.9419 6.99667 63.0576 6.41473C63.1734 5.83279 63.4591 5.29824 63.8787 4.87868C64.2982 4.45912 64.8328 4.1734 65.4147 4.05764C65.9967 3.94189 66.5999 4.0013 67.1481 4.22836C67.6962 4.45542 68.1648 4.83994 68.4944 5.33329C68.8241 5.82664 69 6.40666 69 7C69 7.79565 68.6839 8.55871 68.1213 9.12132C67.5587 9.68393 66.7956 10 66 10ZM75 21V20C75 18.1435 74.2625 16.363 72.9497 15.0503C71.637 13.7375 69.8565 13 68 13H64C62.1435 13 60.363 13.7375 59.0503 15.0503C57.7375 16.363 57 18.1435 57 20V21H59V20C59 18.6739 59.5268 17.4021 60.4645 16.4645C61.4021 15.5268 62.6739 15 64 15H68C69.3261 15 70.5979 15.5268 71.5355 16.4645C72.4732 17.4021 73 18.6739 73 20V21H75Z" fill="#000201"/>
<path d="M129.822 7.431C129.73 7.29808 129.607 7.18943 129.464 7.11436C129.321 7.0393 129.162 7.00006 129 7H115.333L114.179 4.23C114.028 3.86523 113.771 3.55359 113.443 3.33462C113.114 3.11564 112.728 2.99918 112.333 3H110V5H112.333L117.077 16.385C117.153 16.5672 117.281 16.7228 117.445 16.8322C117.61 16.9416 117.803 17 118 17H126C126.417 17 126.79 16.741 126.937 16.352L129.937 8.352C129.994 8.20063 130.013 8.03776 129.993 7.87735C129.973 7.71695 129.914 7.56379 129.822 7.431ZM125.307 15H118.667L116.167 9H127.557L125.307 15Z" fill="#000201"/>
<path d="M118.5 21C119.328 21 120 20.3284 120 19.5C120 18.6716 119.328 18 118.5 18C117.672 18 117 18.6716 117 19.5C117 20.3284 117.672 21 118.5 21Z" fill="#000201"/>
<path d="M125.5 21C126.328 21 127 20.3284 127 19.5C127 18.6716 126.328 18 125.5 18C124.672 18 124 18.6716 124 19.5C124 20.3284 124.672 21 125.5 21Z" fill="#000201"/>
<circle cx="128" cy="7" r="4" fill="#FF1616"/>
</svg>
